<svg width="66" height="66" viewBox="0 0 66 66" fill="none" xmlns="http://www.w3.org/2000/svg">
<path d="M29.5156 13.9596C35.9214 13.1962 42.4011 14.5503 47.965 17.8152C53.529 21.0801 57.8715 26.0763 60.3294 32.0408C60.5586 32.6583 60.5586 33.3374 60.3294 33.9548C59.3172 36.4043 57.9816 38.7072 56.3584 40.8023M38.7309 38.9351C37.1749 40.4379 35.0909 41.2694 32.9278 41.2506C30.7647 41.2319 28.6955 40.3642 27.1659 38.8346C25.6363 37.305 24.7686 35.2358 24.7498 33.0726C24.731 30.9095 25.5626 28.8256 27.0654 27.2696" stroke="white" stroke-width="5.5" stroke-linecap="round" stroke-linejoin="round"/>
<path d="M48.0672 48.1223C44.4193 50.2831 40.3492 51.634 36.1332 52.0833C31.9171 52.5326 27.6538 52.0698 23.6324 50.7262C19.611 49.3826 15.9257 47.1897 12.8265 44.2963C9.72731 41.4029 7.28675 37.8767 5.67043 33.957C5.44124 33.3396 5.44124 32.6604 5.67043 32.043C8.10866 26.1301 12.3988 21.1674 17.8969 17.8997M5.49993 5.5L60.4999 60.5" stroke="white" stroke-width="5.5" stroke-linecap="round" stroke-linejoin="round"/>
</svg>
